<svg width="382" height="203" xmlns="http://www.w3.org/2000/svg" xmlns:xlink="http://www.w3.org/1999/xlink"><defs><radialGradient cx="50%" cy="51.561%" fx="50%" fy="51.561%" r="83.97%" gradientTransform="matrix(0 1 -.5264 0 .771 .016)" id="a"><stop stop-color="#327C18" offset="0%"/><stop stop-color="#25600E" offset="60.894%"/><stop stop-color="#1D5404" offset="100%"/></radialGradient><path id="b" d="M0 0h379.5v199.772H0z"/></defs><g transform="translate(1 1)" fill="none" fill-rule="evenodd" stroke="#629331"><use fill="url(#a)" xlink:href="#b" transform="translate(.849 .114)"/><g transform="translate(162 1)"><path stroke-linecap="square" d="M29 0v199"/><circle cx="29" cy="99" r="29"/></g><path stroke-linecap="square" d="M52.223 33.466V166.66M328.815 33.5L328 166.66m34.027-100.37v65.608M18.973 67.2V132M1.33 66.233h17.643M1.33 132.824h17.643m343.054-66.591h17.643m-17.643 66.591h17.643M52.223 33.466H1.357m50.866 133.182H1.357M379.67 33.466h-50.865m50.865 133.182h-50.865"/><ellipse fill="#69963C" fill-rule="nonzero" cx="36.595" cy="99.642" rx="2.595" ry="2.642"/><ellipse fill="#69963C" fill-rule="nonzero" cx="345.421" cy="100.057" rx="2.595" ry="2.642"/><path d="M53.352 123.508c7.451 0 13.492-10.411 13.492-23.254C66.844 87.41 60.804 77 53.352 77c-.345 0-.687.022-1.026.066-.339.044.114 46.39.114 46.39s.605.052.912.052zm273.94 0c-7.451 0-13.492-10.411-13.492-23.254C313.8 87.41 319.84 77 327.292 77c.345 0 .688.022 1.026.066.339.044-.114 46.39-.114 46.39s-.605.052-.912.052z"/></g></svg>